#!OML:ASF F:\VICON\USERDATA\INSTALL\rory3\rory3.ASF
:FULLY-SPECIFIED
:DEGREES
585
root -8.39106 18.0346 3.96713 67.8372 86.4736 67.8107
lowerback 10.5157 6.37269 -0.274535
upperback -0.0802488 8.43479 -0.447618
thorax -5.91145 4.15245 -1.61287
lowerneck -20.6036 -1.09303 -10.5096
upperneck 36.4556 3.88231 0.622286
head 16.4791 0.685751 3.01187
rclavicle -4.17199e-014 1.07344e-014
rhumerus -35.5901 34.9878 -100.333
rradius 80.2733
rwrist 16.2622
rhand -20.3695 14.7988
rfingers 7.12502
rthumb 5.98309 -15.0968
lclavicle -4.17199e-014 1.07344e-014
lhumerus -37.9594 -30.256 99.4581
lradius 80.4208
lwrist 16.3451
lhand -21.6692 25.1171
lfingers 7.12502
lthumb 4.72823 55.0443
rfemur -4.48368 -14.9783 3.81267
rtibia 43.4905
rfoot 0.337207 -20.3064
rtoes 25.6095
lfemur -7.15041 14.5162 -25.1353
ltibia 14.5163
lfoot -3.67705 2.82332
ltoes 3.54695
586
root -8.31131 18.027 3.90267 80.2308 86.556 80.2835
lowerback 10.4818 6.30631 -0.502961
upperback -0.0807509 8.31807 -0.469607
thorax -5.92408 4.10142 -1.49134
lowerneck -20.4929 -1.1604 -10.5133
upperneck 36.479 3.77824 0.630696
head 16.4726 0.648626 2.99651
rclavicle -3.97569e-014 4.37326e-015
rhumerus -35.5975 34.8712 -100.464
rradius 80.3019
rwrist 16.2313
rhand -20.5383 14.6154
rfingers 7.12502
rthumb 5.82015 -15.2846
lclavicle -3.97569e-014 4.37326e-015
lhumerus -38.1118 -30.161 99.477
lradius 80.4697
lwrist 16.7124
lhand -22.0813 25.1496
lfingers 7.12502
lthumb 4.33029 55.0853
rfemur -4.99849 -15.0519 3.67854
rtibia 44.5055
rfoot -0.354702 -17.3126
rtoes 22.3819
lfemur -6.84451 14.3299 -25.4715
ltibia 14.5876
lfoot -4.21895 2.60203
ltoes 5.29108
587
root -8.23261 18.0119 3.84277 91.6689 86.4914 91.8189
lowerback 10.4353 6.24842 -0.731124
upperback -0.0511 8.21227 -0.512232
thorax -5.89373 4.05641 -1.38874
lowerneck -20.356 -1.20548 -10.5007
upperneck 36.4244 3.66872 0.673249
head 16.4174 0.618419 2.98851
rclavicle 8.99998e-014 -1.07344e-014
rhumerus -35.5474 34.6478 -100.542
rradius 80.376
rwrist 16.1683
rhand -20.274 14.6709
rfingers 7.12502
rthumb 6.07528 -15.222
lclavicle 8.99998e-014 -1.07344e-014
lhumerus -38.1413 -30.1173 99.3636
lradius 80.4973
lwrist 17.0214
lhand -21.6935 25.3578
lfingers 7.12502
lthumb 4.70475 55.2856
rfemur -5.48683 -14.9116 3.64264
rtibia 45.4458
rfoot -1.15907 -14.6752
rtoes 16.6187
lfemur -6.5601 14.2002 -25.7598
ltibia 14.7476
lfoot -4.75121 2.31163
ltoes 6.93342
588
root -8.15316 18.0044 3.78073 101.733 86.4632 101.975
lowerback 10.3473 6.18471 -0.81746
upperback 0.0298127 8.12029 -0.494877
thorax -5.77446 4.0163 -1.29375
lowerneck -20.3729 -1.23744 -10.5058
upperneck 36.4343 3.60071 0.743975
head 16.4283 0.600417 3.00867
rclavicle -2.2239e-014 -1.47101e-014
rhumerus -35.4495 34.3883 -100.56
rradius 80.4625
rwrist 16.0513
rhand -19.9159 14.7819
rfingers 7.12502
rthumb 6.42101 -15.1007
lclavicle -2.2239e-014 -1.47101e-014
lhumerus -38.0221 -30.2699 99.1535
lradius 80.5093
lwrist 17.3271
lhand -21.574 25.4139
lfingers 7.12502
lthumb 4.82012 55.3391
rfemur -6.05545 -14.374 3.8647
rtibia 46.2935
rfoot -2.01663 -12.4878
rtoes 12.0292
lfemur -6.32329 13.9616 -25.8753
ltibia 15.039
lfoot -5.29692 2.15377
ltoes 6.46921
589
root -8.07293 17.9972 3.71754 111.975 86.3838 112.331
lowerback 10.2954 6.11059 -0.814285
upperback 0.106083 8.026 -0.454408
thorax -5.6711 3.97233 -1.22767
lowerneck -20.4508 -1.29728 -10.518
upperneck 36.4945 3.51484 0.798559
head 16.4826 0.568614 3.02263
rclavicle 4.62174e-015 5.1684e-015
rhumerus -35.3406 34.0993 -100.598
rradius 80.4748
rwrist 16.0206
rhand -19.8605 14.882
rfingers 7.12502
rthumb 6.47451 -14.999
lclavicle 4.62174e-015 5.1684e-015
lhumerus -37.9584 -30.5454 98.9596
lradius 80.5374
lwrist 17.7264
lhand -21.9037 25.3842
lfingers 7.12502
lthumb 4.50176 55.3164
rfemur -6.62923 -14.0337 4.09578
rtibia 47.0704
rfoot -2.84927 -10.2389
rtoes 10.11
lfemur -6.0916 14.1793 -25.9021
ltibia 15.3457
lfoot -5.84135 1.61567
ltoes 5.48465
590
root -7.99049 17.9866 3.66226 121.182 86.2238 121.674
lowerback 10.2513 6.06259 -0.900844
upperback 0.174111 7.95758 -0.377157
thorax -5.59816 3.94329 -1.08137
lowerneck -20.4404 -1.34451 -10.5728
upperneck 36.459 3.41181 0.917274
head 16.4638 0.537825 3.0634
rclavicle -1.48095e-014 9.54166e-015
rhumerus -35.2362 33.7694 -100.625
rradius 80.4762
rwrist 16.101
rhand -19.7091 14.8903
rfingers 7.12502
rthumb 6.62068 -14.9863
lclavicle -1.48095e-014 9.54166e-015
lhumerus -37.9135 -30.7559 98.7811
lradius 80.5385
lwrist 18.3304
lhand -21.8485 25.2569
lfingers 7.12502
lthumb 4.55505 55.188
rfemur -7.16054 -14.1593 4.27067
rtibia 47.7766
rfoot -3.41379 -7.64129
rtoes 8.79236
lfemur -5.78965 14.289 -25.8715
ltibia 15.6291
lfoot -6.36449 1.16915
ltoes 4.60108
